<svg viewBox="0 0 720 440" fill="none" xmlns="http://www.w3.org/2000/svg"><ellipse cx="360" cy="240" rx="280" ry="180" fill="url(#heroGlow)" opacity="0.3"/><rect x="160" y="80" width="400" height="250" rx="16" fill="rgba(31, 28, 56, 1)" stroke="rgba(155,109,255,0.2)" stroke-width="1.5"/><rect x="190" y="110" width="100" height="10" rx="5" fill="rgba(155, 109, 255, 1)" opacity="0.6"/><rect x="190" y="130" width="140" height="10" rx="5" fill="rgba(155, 109, 255, 1)" opacity="0.3"/><rect x="190" y="155" width="80" height="30" rx="6" fill="rgba(64, 223, 167, 1)" opacity="0.4"/><rect x="190" y="195" width="200" height="8" rx="4" fill="rgba(255,255,255,0.08)"/><rect x="190" y="213" width="160" height="8" rx="4" fill="rgba(255,255,255,0.06)"/><rect x="190" y="231" width="180" height="8" rx="4" fill="rgba(255,255,255,0.06)"/><rect x="420" y="105" width="110" height="200" rx="10" fill="rgba(21, 18, 40, 1)" stroke="rgba(255,255,255,0.06)" stroke-width="1"/><circle cx="475" cy="135" r="16" fill="rgba(155,109,255,0.2)"/><rect x="440" y="165" width="70" height="8" rx="4" fill="rgba(255,255,255,0.08)"/><rect x="440" y="183" width="50" height="8" rx="4" fill="rgba(255,255,255,0.06)"/><rect x="440" y="210" width="70" height="8" rx="4" fill="rgba(64, 223, 167, 1)" opacity="0.3"/><rect x="440" y="260" width="70" height="8" rx="4" fill="rgba(255,255,255,0.06)"/><rect x="440" y="278" width="55" height="8" rx="4" fill="rgba(255,255,255,0.06)"/><g opacity="0.7"><rect x="100" y="190" width="50" height="40" rx="8" fill="rgba(31, 28, 56, 1)" stroke="rgba(64,223,167,0.3)" stroke-width="1" transform="rotate(-12 125 210)"/><circle cx="118" cy="212" r="6" fill="rgba(64, 223, 167, 1)" opacity="0.5"/></g><g opacity="0.6"><rect x="570" y="160" width="55" height="45" rx="8" fill="rgba(31, 28, 56, 1)" stroke="rgba(155,109,255,0.25)" stroke-width="1" transform="rotate(8 597 182)"/><rect x="579" y="175" width="36" height="6" rx="3" fill="rgba(155, 109, 255, 1)" opacity="0.4"/></g><rect x="260" y="300" width="200" height="14" rx="7" fill="rgba(31, 28, 56, 1)" stroke="rgba(255,255,255,0.06)" stroke-width="1"/><circle cx="140" cy="110" r="3" fill="rgba(155, 109, 255, 1)" opacity="0.4"/><circle cx="580" cy="100" r="2.5" fill="rgba(64, 223, 167, 1)" opacity="0.4"/><circle cx="620" cy="280" r="2" fill="rgba(155, 109, 255, 1)" opacity="0.3"/><circle cx="90" cy="300" r="2.5" fill="rgba(255, 162, 105, 1)" opacity="0.3"/><rect x="210" y="240" width="16" height="50" rx="3" fill="rgba(155, 109, 255, 1)" opacity="0.3"/><rect x="234" y="255" width="16" height="35" rx="3" fill="rgba(64, 223, 167, 1)" opacity="0.35"/><rect x="258" y="248" width="16" height="42" rx="3" fill="rgba(255, 162, 105, 1)" opacity="0.3"/><rect x="282" y="260" width="16" height="30" rx="3" fill="rgba(109, 169, 255, 1)" opacity="0.3"/><rect x="306" y="235" width="16" height="55" rx="3" fill="rgba(155, 109, 255, 1)" opacity="0.35"/><defs><radialGradient id="heroGlow" cx="0.5" cy="0.5" r="0.5"><stop stop-color="rgba(155, 109, 255, 1)"/><stop offset="1" stop-color="rgba(155, 109, 255, 1)" stop-opacity="0"/></radialGradient></defs></svg>