<svg
viewBox="0 0 540 380"
fill="none"
xmlns="http://www.w3.org/2000/svg"
><ellipse
cx="270"
cy="210"
rx="220"
ry="150"
fill="url(#spotGlow)"
opacity="0.25"/><rect
x="60"
y="50"
width="340"
height="220"
rx="14"
fill="rgba(31, 28, 56, 1)"
stroke="rgba(155,109,255,0.15)"
stroke-width="1.5"/><rect
x="75"
y="65"
width="310"
height="190"
rx="6"
fill="rgba(21, 18, 40, 1)"/><rect
x="95"
y="85"
width="80"
height="10"
rx="5"
fill="rgba(155, 109, 255, 1)"
opacity="0.5"/><rect
x="95"
y="105"
width="120"
height="8"
rx="4"
fill="rgba(255,255,255,0.06)"/><polyline
points="95,175 130,150 165,165 200,130 235,145 270,110 305,125 340,90 370,100"
stroke="rgba(64, 223, 167, 1)"
stroke-width="2.5"
fill="none"
opacity="0.7"/><rect
x="95"
y="185"
width="270"
height="2"
rx="1"
fill="rgba(255,255,255,0.04)"/><rect
x="130"
y="200"
width="14"
height="30"
rx="3"
fill="rgba(155, 109, 255, 1)"
opacity="0.3"/><rect
x="155"
y="210"
width="14"
height="20"
rx="3"
fill="rgba(64, 223, 167, 1)"
opacity="0.35"/><rect
x="180"
y="205"
width="14"
height="25"
rx="3"
fill="rgba(255, 162, 105, 1)"
opacity="0.25"/><rect
x="205"
y="195"
width="14"
height="35"
rx="3"
fill="rgba(155, 109, 255, 1)"
opacity="0.3"/><rect
x="230"
y="215"
width="14"
height="15"
rx="3"
fill="rgba(109, 169, 255, 1)"
opacity="0.25"/><rect
x="255"
y="200"
width="14"
height="30"
rx="3"
fill="rgba(64, 223, 167, 1)"
opacity="0.3"/><path
d="M50 270 L60 275 L400 275 L410 270 Z"
fill="rgba(26, 23, 48, 1)"
stroke="rgba(255,255,255,0.04)"
stroke-width="1"/><rect
x="180"
y="270"
width="100"
height="6"
rx="3"
fill="rgba(31, 28, 56, 1)"/><rect
x="420"
y="100"
width="100"
height="140"
rx="10"
fill="rgba(31, 28, 56, 1)"
stroke="rgba(64,223,167,0.15)"
stroke-width="1.5"
transform="rotate(8 470 170)"/><rect
x="428"
y="108"
width="84"
height="124"
rx="6"
fill="rgba(21, 18, 40, 1)"
transform="rotate(8 470 170)"/><rect
x="439"
y="125"
width="40"
height="6"
rx="3"
fill="rgba(64, 223, 167, 1)"
opacity="0.4"
transform="rotate(8 470 170)"/><rect
x="439"
y="140"
width="50"
height="5"
rx="2.5"
fill="rgba(255,255,255,0.06)"
transform="rotate(8 470 170)"/><rect
x="439"
y="152"
width="35"
height="5"
rx="2.5"
fill="rgba(255,255,255,0.06)"
transform="rotate(8 470 170)"/><circle
cx="466"
cy="220"
r="3"
fill="rgba(64, 223, 167, 1)"
opacity="0.4"
transform="rotate(8 470 170)"/><rect
x="370"
y="240"
width="50"
height="90"
rx="8"
fill="rgba(31, 28, 56, 1)"
stroke="rgba(155,109,255,0.15)"
stroke-width="1.5"
transform="rotate(-6 395 285)"/><rect
x="375"
y="246"
width="40"
height="78"
rx="5"
fill="rgba(21, 18, 40, 1)"
transform="rotate(-6 395 285)"/><rect
x="382"
y="258"
width="20"
height="4"
rx="2"
fill="rgba(155, 109, 255, 1)"
opacity="0.4"
transform="rotate(-6 395 285)"/><rect
x="382"
y="268"
width="26"
height="3"
rx="1.5"
fill="rgba(255,255,255,0.06)"
transform="rotate(-6 395 285)"/><rect
x="382"
y="276"
width="18"
height="3"
rx="1.5"
fill="rgba(255,255,255,0.06)"
transform="rotate(-6 395 285)"/><line
x1="380"
y1="200"
x2="425"
y2="150"
stroke="rgba(155,109,255,0.15)"
stroke-width="1"
stroke-dasharray="4 4"/><line
x1="360"
y1="300"
x2="380"
y2="280"
stroke="rgba(64,223,167,0.12)"
stroke-width="1"
stroke-dasharray="4 4"/><circle cx="50" cy="120" r="2.5" fill="rgba(155, 109, 255, 1)" opacity="0.3"/><circle cx="490" cy="80" r="2" fill="rgba(64, 223, 167, 1)" opacity="0.3"/><circle cx="520" cy="260" r="2" fill="rgba(155, 109, 255, 1)" opacity="0.25"/><circle cx="30" cy="300" r="2" fill="rgba(255, 162, 105, 1)" opacity="0.2"/><defs><radialGradient id="spotGlow" cx="0.5" cy="0.5" r="0.5"><stop stop-color="rgba(155, 109, 255, 1)"/><stop offset="1" stop-color="rgba(155, 109, 255, 1)" stop-opacity="0"/></radialGradient></defs></svg>